<?xml version="1.0" encoding="UTF-8"?>
<svg width="40pt" height="40pt" version="1.1" viewBox="0 0 1200 1200" xmlns="http://www.w3.org/2000/svg">
 <path d="m792.9 407.13c-44.645-44.629-103.38-72.398-166.21-78.574-62.82-6.1758-125.84 9.625-178.32 44.703-52.48 35.082-91.172 87.277-109.48 147.69-18.309 60.41-15.105 125.3 9.0664 183.62s67.812 106.44 123.49 136.18c55.68 29.742 119.95 39.258 181.86 26.926 61.91-12.332 117.62-45.75 157.66-94.559 40.031-48.809 61.902-109.99 61.883-173.11 0.046875-35.828-6.9844-71.309-20.691-104.41-13.711-33.098-33.824-63.16-59.191-88.461zm-192.9-107.84c69.574-0.003907 137 24.117 190.78 68.25 53.781 44.137 90.598 105.55 104.17 173.79 13.578 68.238 3.0742 139.07-29.723 200.43-32.793 61.359-85.852 109.45-150.13 136.08-64.277 26.625-135.8 30.141-202.38 9.9453-66.578-20.195-124.09-62.848-162.75-120.7-38.652-57.848-56.051-127.31-49.234-196.55 6.8203-69.238 37.434-133.97 86.629-183.17 27.895-27.965 61.035-50.141 97.523-65.258 36.492-15.117 75.609-22.871 115.11-22.82zm15.398 189.32c1.9883-7.4453 9.6367-11.871 17.082-9.8828 7.4492 1.9883 11.875 9.6367 9.8867 17.086l-57.738 215.58c-1.9922 7.4453-9.6445 11.867-17.094 9.8789-7.4453-1.9922-11.867-9.6445-9.875-17.094l57.766-215.57zm59.43 20.301c-5.3398-5.4766-5.2852-14.227 0.125-19.633 5.4062-5.4102 14.156-5.4648 19.633-0.125l100.96 100.96c5.4531 5.457 5.4531 14.301 0 19.758l-100.94 100.96c-5.4727 5.3398-14.227 5.2852-19.633-0.125-5.4062-5.4062-5.4609-14.156-0.12109-19.633l91.074-91.086-91.074-91.086zm-169.39-19.758c5.4531-5.457 14.301-5.4609 19.762-0.003906 5.457 5.4531 5.4609 14.301 0.003906 19.762l-91.086 91.086 91.086 91.086c5.457 5.4609 5.4531 14.309-0.003906 19.762-5.4609 5.457-14.309 5.4531-19.762-0.003906l-100.96-100.96c-5.457-5.457-5.457-14.301 0-19.758zm206.65-279.31c0.75781 5.2695 4.4648 9.6406 9.5352 11.254 10.457 3.3672 20.707 7.1289 30.746 11.281 10.039 4.1523 19.879 8.7188 29.52 13.707 4.7305 2.418 10.43 1.9297 14.68-1.2656l127.66-95.09h-0.003907c4.6602-3.6094 10.402-5.5469 16.297-5.4961 4.918 0.089844 9.6133 2.0703 13.109 5.5352l96.57 96.543c3.4609 3.4961 5.4414 8.1914 5.5312 13.109 0.050781 5.8945-1.8789 11.633-5.4805 16.297l-94.75 127.23c-3.4766 4.2969-4.0898 10.238-1.5664 15.156 5.0508 9.7266 9.625 19.574 13.719 29.547 4.0586 9.7617 7.7305 19.73 11.016 29.91h-0.003906c1.3867 5.4727 5.9258 9.5742 11.508 10.395l157.52 23.016c5.8203 0.73438 11.219 3.4023 15.336 7.5781 3.4375 3.5547 5.3672 8.2969 5.3945 13.238v136.42c-0.035156 4.9297-1.9688 9.6562-5.3945 13.199-4.1172 4.1758-9.5156 6.8477-15.336 7.5781l-157.52 23.027c-5.2695 0.76172-9.6406 4.4648-11.254 9.5391-3.3672 10.457-7.1289 20.711-11.281 30.758-4.1484 10.047-8.7188 19.906-13.703 29.582-2.4414 4.7188-1.9727 10.418 1.1992 14.68l95.117 127.68c3.6016 4.6641 5.5312 10.402 5.4805 16.293-0.089844 4.9219-2.0703 9.6172-5.5312 13.113l-96.52 96.516c-3.4961 3.4648-8.1914 5.4453-13.109 5.5352-5.8945 0.050781-11.637-1.8867-16.297-5.4961l-127.23-94.738c-4.2891-3.4922-10.242-4.1055-15.156-1.5664-9.7188 5.0508-19.566 9.625-29.547 13.719-9.7695 4.0508-19.738 7.7227-29.91 11.016-5.4766 1.3711-9.582 5.918-10.383 11.508l-23.027 157.52c-0.73828 5.8125-3.4062 11.207-7.5781 15.32-3.5469 3.4336-8.2773 5.3711-13.215 5.4062h-136.45c-4.9375-0.03125-9.668-1.9688-13.211-5.4062-4.1797-4.1094-6.8477-9.5078-7.582-15.32l-23.016-157.52h0.003906c-0.76172-5.2695-4.4648-9.6406-9.5391-11.254-10.457-3.3672-20.707-7.1289-30.746-11.281-10.035-4.1523-19.902-8.7188-29.594-13.707-4.7227-2.4414-10.426-1.9766-14.691 1.2031l-127.64 95.102c-4.6562 3.6094-10.391 5.543-16.281 5.4961-4.9258-0.089844-9.625-2.0703-13.125-5.5352l-96.52-96.492c-3.4609-3.4961-5.4414-8.1914-5.5312-13.109-0.050781-5.8945 1.8828-11.637 5.4922-16.297l94.738-127.23c3.4922-4.2891 4.1094-10.242 1.5664-15.156-5.0508-9.7266-9.625-19.574-13.719-29.547-4.043-9.7617-7.7109-19.73-11.004-29.91h0.003906c-1.3906-5.4688-5.9375-9.5664-11.52-10.383l-157.5-23.016c-5.8203-0.73047-11.223-3.3984-15.336-7.5781-3.4609-3.5469-5.4141-8.2969-5.457-13.25v-136.42c0.054687-4.9375 2.0117-9.6641 5.457-13.199 4.1133-4.1797 9.5156-6.8477 15.336-7.5781l157.5-23.016c5.2617-0.76562 9.6289-4.4688 11.242-9.5391 3.3672-10.457 7.1289-20.711 11.281-30.758 4.1484-10.043 8.7227-19.91 13.715-29.594 2.4492-4.7227 1.9883-10.426-1.1875-14.691l-95.117-127.67c-3.6094-4.6602-5.543-10.398-5.4922-16.293 0.089844-4.9219 2.0703-9.6172 5.5312-13.113l96.469-96.516c3.5-3.4648 8.1992-5.4453 13.125-5.5352 5.8906-0.046874 11.625 1.8867 16.281 5.4961l127.18 94.738c4.2891 3.4922 10.242 4.1055 15.156 1.5664 9.7266-5.0508 19.574-9.625 29.547-13.719 9.7773-4.0586 19.746-7.7305 29.91-11.016 5.4844-1.3633 9.5938-5.9141 10.395-11.508l23.016-157.52c0.73047-5.8125 3.3984-11.211 7.5781-15.32 3.5586-3.4648 8.3242-5.4141 13.289-5.4336h136.48c4.9375 0.039063 9.668 1.9727 13.211 5.4062 4.1758 4.1133 6.8477 9.5078 7.582 15.324z" fill="#f4c75c" fill-rule="evenodd"/>
</svg>
