<?xml version="1.0" encoding="UTF-8"?>
<svg width="70pt" height="70pt" version="1.1" viewBox="0 0 1200 1200" xmlns="http://www.w3.org/2000/svg">
 <defs>
  <clipPath id="j">
   <path d="m287 434h171v468h-171z"/>
  </clipPath>
  <clipPath id="h">
   <path d="m1116.2 461.7-654.47-377.86-377.86 654.47 654.47 377.86z"/>
  </clipPath>
  <clipPath id="g">
   <path d="m516 745h262v262h-262z"/>
  </clipPath>
  <clipPath id="f">
   <path d="m1116.2 461.7-654.47-377.86-377.86 654.47 654.47 377.86z"/>
  </clipPath>
  <clipPath id="e">
   <path d="m426 227h237v455h-237z"/>
  </clipPath>
  <clipPath id="d">
   <path d="m1116.2 461.7-654.47-377.86-377.86 654.47 654.47 377.86z"/>
  </clipPath>
  <clipPath id="c">
   <path d="m731 536h270v241h-270z"/>
  </clipPath>
  <clipPath id="b">
   <path d="m1116.2 461.7-654.47-377.86-377.86 654.47 654.47 377.86z"/>
  </clipPath>
  <clipPath id="a">
   <path d="m576 267h352v423h-352z"/>
  </clipPath>
  <clipPath id="i">
   <path d="m1116.2 461.7-654.47-377.86-377.86 654.47 654.47 377.86z"/>
  </clipPath>
 </defs>
 <g>
  <g clip-path="url(#j)">
   <g clip-path="url(#h)">
    <path d="m363.65 899.86c4.2812 2.4727 9.7305 2.8555 14.594 0.60938 7.8828-3.7031 11.266-13.094 7.5195-20.895-51.766-110.1-40.074-176.57-34.488-208.54l1.168-6.5586c5.4258-33.52 4.125-80.008-3.5039-121.21-4.1953-22.965-14.195-41.102-21.465-54.387-3.5508-6.4492-8.457-15.391-8.3984-18.266 6.6992-11.039 30.688 0.375 44.352 8.2617 31.594 20.348 36.348 69.418 40.453 112.69 3.7109 38.793 6.9453 72.293 29.352 87.266 7.3047 4.7266 17.039 2.8555 21.832-4.375 4.8359-7.2422 2.8828-17.023-4.375-21.832-10-6.6094-12.922-37.129-15.48-64.059-4.5703-47.941-10.332-107.55-55.387-136.51l-0.054688-0.03125c-56.258-32.48-79.406-11.34-88.285 4.0391-9.1797 15.898-0.21484 32.238 8.4727 48.051 6.9141 12.645 14.773 27 18.109 44.961 6.9609 37.941 8.2734 80.258 3.3984 110.5l-1.0898 6.1719c-6.1445 35.141-19 108.29 36.969 227.36 1.3398 2.8438 3.6094 5.2109 6.3086 6.7695z" fill="#3b848e"/>
   </g>
  </g>
  <g clip-path="url(#g)">
   <g clip-path="url(#f)">
    <path d="m524.79 992.89c24.105 13.918 49.211 16.848 74.652 8.7422 80.516-25.723 141.01-157.83 166.83-214.26 4.1094-9.0078 7.0898-15.613 8.8672-18.695 4.3281-7.5 1.7617-17.16-5.7617-21.508-7.5273-4.3438-17.176-1.7383-21.508 5.7617-2.0312 3.5195-5.5586 11.078-10.254 21.348-21.988 48.098-80.484 175.87-147.74 197.32-16.875 5.4219-33.008 3.4492-49.367-5.9961-7.5273-4.3438-17.176-1.7383-21.508 5.7617-4.3281 7.5-1.7109 17.191 5.7891 21.523z" fill="#3b848e"/>
   </g>
  </g>
  <g clip-path="url(#e)">
   <g clip-path="url(#d)">
    <path d="m434.06 679.23c0.76172 0.44141 1.6133 0.85938 2.4688 1.207 8.1875 2.9453 17.23-1.25 20.172-9.3711 0.78906-2.125 76.527-209.57 105.25-301.19l6.2734-20.375c12.086-39.637 24.59-80.629 40.938-89.297 2.3008-1.2148 5.7461-2.3906 11.824-0.51562 17.176 5.2617 8.9609 40.59-5.6641 93.883-2.9102 10.645-5.9102 21.637-8.7695 32.824-23.27 91.754-29.406 162.96-29.668 165.94-0.74609 8.6602 5.6953 16.27 14.383 17.031 8.6602 0.74609 16.285-5.7227 17.031-14.383 0.042969-0.70312 6.1875-71.801 28.73-160.92 2.7578-10.949 5.7227-21.75 8.6172-32.184 16.609-60.512 32.273-117.68-15.449-132.32-12.824-3.9844-24.836-2.957-35.832 2.8008-27.879 14.848-41.023 58.016-56.293 107.96l-6.1875 20.098c-28.496 90.918-103.96 297.64-104.78 299.75-2.6406 7.3477 0.48828 15.336 6.9531 19.066z" fill="#3b848e"/>
   </g>
  </g>
  <g clip-path="url(#c)">
   <g clip-path="url(#b)">
    <path d="m753.67 774.42c4.8008 2.7695 10.883 2.9375 15.973-0.085937 0.79297-0.48828 80.789-48.617 172.82-122.74 20.812-16.781 76.281-61.402 52-101.53-3.1484-5.125-9.418-11.582-21.891-13.219-24.734-3.1914-60.992 15.145-76.043 29.688l-158.16 102.34c-7.2812 4.7422-9.375 14.477-4.6367 21.758 4.7773 7.3398 14.492 9.3477 21.758 4.6367l160.52-104.21c16.121-15.199 46.293-25.52 53.426-22.82 0.40234 2.0117 4.1445 17.883-46.77 58.84-90.203 72.668-168.45 119.77-169.21 120.21-7.4648 4.4883-9.8945 14.176-5.4453 21.652 1.4375 2.3594 3.4297 4.1992 5.668 5.4883z" fill="#3b848e"/>
   </g>
  </g>
  <g clip-path="url(#a)">
   <g clip-path="url(#i)">
    <path d="m723.82 686.94c6.8164 3.9375 15.652 2.2383 20.469-4.2188l139.52-186.69c27.938-29.684 46.574-55.102 43.117-78.332-1.2031-8.1836-5.8516-19.777-21.125-28.594-21.023-12.137-48.004-3.1367-75.965 25.332-15.445 15.734-92.727 107.9-132.87 155.95 27.633-55.672 99.906-201.89 107.98-221.91 7.0742-17.477 21.773-53.895-15.316-75.309-11.098-6.4062-22.895-7.7656-34.16-3.8711-22.656 7.7539-36.461 34.434-42.664 49.648l-133.77 226.73c-4.3984 7.4961-1.9297 17.137 5.5898 21.555 0.027344 0.015625 0.082031 0.046875 0.10938 0.0625 7.4727 4.3125 17.059 1.8125 21.445-5.6523l134.8-228.75c7.7266-18.48 17.254-31.27 24.73-33.824 1.8008-0.59766 4.2031-0.91797 8.2109 1.3945 9.4883 5.4805 12.305 10.305 1.8359 36.184-7.4922 18.582-80.504 166.52-118.05 242.13-4.5977 11.488-15.363 38.762 1.7891 50.555 5.9102 3.9961 18.16 8.1562 36.184-8.4492 48.242-57.738 140.91-168.36 156.66-184.43 15.488-15.746 30.996-24.027 37.758-20.121 5.3164 3.0703 5.625 5.2461 5.7383 5.9297 0.88672 5.8945-4.6992 19.977-36.109 53.473l-140.66 188.03c-5.2148 6.9531-3.7617 16.844 3.1914 22.059 0.49219 0.46875 1.0234 0.80859 1.5703 1.125z" fill="#3b848e"/>
   </g>
  </g>
 </g>
</svg>
