<?xml version="1.0" encoding="UTF-8"?>
<svg width="40pt" height="40pt" version="1.1" viewBox="0 0 1200 1200" xmlns="http://www.w3.org/2000/svg">
 <path d="m1168.4 306.95h-1136.8v712.42-0.003906c0.0625 18.121 7.2852 35.48 20.098 48.293s30.172 20.035 48.289 20.094h1000.1c18.129-0.058594 35.496-7.293 48.312-20.117 12.812-12.824 20.031-30.203 20.074-48.332zm-1136.8-27.953h1136.8v-98.301c-0.0625-18.121-7.2852-35.48-20.098-48.293s-30.172-20.035-48.289-20.094h-1000.1c-18.117 0.058594-35.477 7.2812-48.289 20.094s-20.035 30.172-20.098 48.293zm603.21 234.52c2.168-7.2344 9.6914-11.438 16.988-9.4844 7.2969 1.9492 11.723 9.3438 9.9922 16.695l-96.559 360.34c-1.9883 7.4453-9.6367 11.871-17.082 9.8828-7.4492-1.9883-11.871-9.6367-9.8828-17.082zm133.74 58.699c-5.2188-5.5-5.1055-14.152 0.25391-19.516 5.3594-5.3594 14.016-5.4727 19.516-0.25391l135.07 134.97c5.457 5.457 5.457 14.301 0 19.758l-135.07 135c-5.5 5.2188-14.156 5.1055-19.516-0.25391s-5.4727-14.016-0.25391-19.516l125.13-125.14zm-356.83-19.809c5.4727-5.457 14.332-5.4492 19.789 0.019531 5.4609 5.4688 5.4492 14.328-0.019531 19.789l-125.11 125.05 125.12 125.12h-0.003906c5.2188 5.5 5.1055 14.152-0.25391 19.512-5.3594 5.3633-14.016 5.4766-19.516 0.25781l-135-134.98c-5.457-5.457-5.457-14.301 0-19.758zm605.37-370.76c3.7773-0.11328 7.4453 1.3086 10.156 3.9414 2.7148 2.6367 4.2461 6.2539 4.2461 10.035s-1.5312 7.4023-4.2461 10.035c-2.7109 2.6367-6.3789 4.0586-10.156 3.9453h-136.42c-3.7812 0.11328-7.4453-1.3086-10.156-3.9453-2.7148-2.6328-4.2461-6.2539-4.2461-10.035s1.5312-7.3984 4.2461-10.035c2.7109-2.6328 6.375-4.0547 10.156-3.9414zm-834.12 0h-0.003906c3.7812-0.11328 7.4453 1.3086 10.16 3.9414 2.7148 2.6367 4.2461 6.2539 4.2461 10.035s-1.5312 7.4023-4.2461 10.035c-2.7148 2.6367-6.3789 4.0586-10.16 3.9453-3.7773 0.11328-7.4414-1.3086-10.156-3.9453-2.7148-2.6328-4.2461-6.2539-4.2461-10.035s1.5312-7.3984 4.2461-10.035c2.7148-2.6328 6.3789-4.0547 10.156-3.9414zm46.219 0h-0.003906c7.5586 0.23047 13.566 6.418 13.566 13.977 0 7.5625-6.0078 13.75-13.566 13.98-3.7773 0.11328-7.4414-1.3086-10.156-3.9453-2.7148-2.6328-4.2461-6.2539-4.2461-10.035s1.5312-7.3984 4.2461-10.035c2.7148-2.6328 6.3789-4.0547 10.156-3.9414zm46.219 0c7.5547 0.23047 13.562 6.418 13.562 13.977 0 7.5625-6.0078 13.75-13.562 13.98-7.5586-0.23047-13.566-6.418-13.566-13.98 0-7.5586 6.0078-13.746 13.566-13.977z" fill="#e290ec" fill-rule="evenodd"/>
</svg>
