<?xml version="1.0" encoding="UTF-8"?>
<svg width="40pt" height="40pt" version="1.1" viewBox="0 0 1200 1200" xmlns="http://www.w3.org/2000/svg">
 <path d="m1137.2 892.45-406.29-158.1 158.1 406.29c18.949-60.633 37.34-121.71 56.844-182.11 1.3633-4.3906 4.7969-7.8281 9.1836-9.1953l182.17-56.844zm-87.082 56.477c-30.199 38.855-65.266 73.668-104.34 103.58l24.57-78.746 79.77-24.898zm-358.36 213.18c11.117-9.0312 21.422-19.02 30.797-29.848 34.129-41.477 60.887-88.5 79.109-139.02l46.496 119.5v-0.003907c-36.574 17.738-74.957 31.48-114.48 40.992-13.777 3.3086-27.766 6.1133-41.961 8.4141zm470.38-470.34c-2.418 14.898-5.3945 29.578-8.9297 44.047-9.8398 40.238-24.074 79.27-42.441 116.4l-123.79-48.176h-0.003906c51.992-18.176 100.48-45.148 143.33-79.746 11.586-9.8438 22.238-20.73 31.832-32.523zm-318.32-335.56c59.789 11.238 118.22 28.777 174.32 52.32 63.574 27.535 113.22 61.527 144 99.789-19.262-117.81-75.035-226.6-159.45-311s-193.2-140.17-311.02-159.42c38.301 30.797 72.289 80.449 99.789 144 23.566 56.094 41.117 114.52 52.359 174.32zm-805.89 152.15c30.797-38.301 80.438-72.289 144-99.789 56.094-23.559 114.53-41.109 174.32-52.359 11.23-59.789 28.77-118.22 52.32-174.32 27.535-63.562 61.527-113.22 99.789-144-117.81 19.262-226.6 75.035-311 159.45s-140.17 193.2-159.42 311.02zm318.32 335.43c-59.789-11.23-118.22-28.77-174.32-52.32-63.574-27.535-113.22-61.527-144-99.789 19.262 117.81 75.031 226.59 159.44 311 84.414 84.406 193.2 140.17 311.01 159.43-38.285-30.797-72.277-80.438-99.789-144-23.559-56.094-41.105-114.52-52.344-174.32zm-22.738-229.89c0.53516 67.109 6.3398 134.07 17.355 200.27-54.09-10.777-106.95-26.992-157.78-48.402-93.016-40.145-153.11-93.5-161.47-151.77zm835.02 0c-4.5586 31.504-24.355 61.656-56.312 89.078-49.09 38.742-105.14 67.73-165.13 85.402l-89.078-34.66c2.6523-22.789 4.7227-46.305 6.2148-70.547 1.4141-22.922 2.2578-46.012 2.5273-69.273zm-301.89-27.902c-0.53516-67.105-6.3398-134.07-17.355-200.26 54.09 10.777 106.95 26.992 157.78 48.402 92.941 40.246 153.03 93.602 161.39 151.86zm-835.02 0c8.3633-58.258 68.449-111.61 161.39-151.86v-0.003907c50.828-21.41 103.69-37.625 157.78-48.402-11.016 66.195-16.82 133.16-17.355 200.26zm554.41-252.63c-67.105 0.53516-134.07 6.3398-200.26 17.355 10.777-54.09 26.992-106.95 48.402-157.78 40.246-92.902 93.602-153 151.86-161.36v301.82zm0 252.63h-224.59c0.53125-69.031 6.7773-137.89 18.668-205.89 68-11.887 136.87-18.133 205.89-18.672v224.59zm0 582.43c-58.258-8.3477-111.61-68.449-151.86-161.39h-0.003907c-21.41-50.828-37.625-103.69-48.402-157.78 66.195 11.016 133.16 16.82 200.26 17.355zm28.016-301.82c22.391-0.22656 44.707-1.0078 66.949-2.3359 23.375-1.3906 46.148-3.3398 68.312-5.8477l37.035 95.168v-0.003907c-17.73 58.34-46.457 112.75-84.633 160.3-27.145 30.922-56.754 50.07-87.664 54.543zm0-505.2c69.031 0.53906 137.89 6.7852 205.89 18.668 11.895 68 18.137 136.87 18.672 205.89h-224.57zm0-329.82c58.258 8.3477 111.6 68.449 151.86 161.39h0.003907c21.41 50.828 37.625 103.69 48.402 157.78-66.195-11.016-133.16-16.82-200.26-17.355zm-28.016 582.42v224.6c-69.031-0.53125-137.89-6.7773-205.89-18.668-11.895-68-18.137-136.87-18.672-205.89zm125.42 82.824c-5.1562-2.0547-11.043-0.83984-14.969 3.082-3.9219 3.9258-5.1367 9.8125-3.082 14.969l45.359 116.55c-19.578 2.0977-39.398 3.7422-59.457 4.9375-21.172 1.2617-42.922 2.0078-65.254 2.2344v-224.6h224.59c-0.22656 23.133-1.0195 45.676-2.375 67.629-1.2734 20.773-3.0391 41.34-5.3047 61.691z" fill="#93f4d6" fill-rule="evenodd"/>
</svg>
