<?xml version="1.0" encoding="UTF-8"?>
<svg version="1.1" viewBox="0 0 1200 1200" xmlns="http://www.w3.org/2000/svg">
 <g fill="#39f2ff">
  <path d="m767.8 350c27.602 0 50 22.449 50 50v250c0 27.551-22.398 50-50 50-27.602 0-50-22.449-50-50v-250c0-27.551 22.398-50 50-50z"/>
  <path d="m256.85 190.7c12.5-7.5 27.699-9.25 41.5-4.8008 13.848 4.4531 25.199 14.602 31.047 28.102l140.3 314.55c7.5 16.801 25.25 25.949 43.551 22.602 18.102-3.5508 31.148-18.852 31.852-37.25l15.5-415.55c2.75-27.551 25.699-48.352 53.449-48.352 29.648 0 53.75 24.102 53.75 53.75v471.65c-1.8984 0-3.8008-0.14844-5.6992 0.25l-302 71.051-125.5-397.3c-7.1016-22.398 2.0977-46.547 22.25-58.699z"/>
  <path d="m967.8 857.3c0 161.4-131.3 292.7-292.7 292.7h-110.6c-43.051 0-86.199-10.199-124.7-29.449-78.102-39-134-113.6-149.55-199.5l-21.051-115.35c-0.94922-5.25-1.3984-10.602-1.3984-15.949 0-41.199 28.051-76.551 68.102-86l314.6-74c3.75 20.699 1.1992 42.051-7.6016 61.75-11.699 26.301-33.102 46.199-60.148 56.051l-107.75 39.199c-17.051 6.1992-30.648 19.398-37.398 36.25-6.6992 16.852-5.8516 35.75 2.25 51.949l30.602 61.25c6.1992 12.398 21.148 17.25 33.551 11.199 12.352-6.1992 17.352-21.199 11.199-33.551l-30.602-61.301c-2.3984-4.6992-1.3008-8.9492-0.5-11.051 0.85156-2.1016 3-5.9492 8-7.8008l107.75-39.199c39.898-14.5 71.398-43.801 88.699-82.551 0.14844-0.39844 0.19922-0.80078 0.39844-1.1484 18.297 23.652 46.648 39.203 78.848 39.203 24.648 0 46.949-9.3008 64.398-24.148 17.449 29.301 49.148 49.148 85.602 49.148 18.199 0 35.301-4.8984 50-13.449z"/>
  <path d="m967.8 675c0 27.551-22.398 50-50 50-27.602 0-50-22.449-50-50v-175c0-27.551 22.398-50 50-50 27.602 0 50 22.449 50 50z"/>
 </g>
</svg>
