<?xml version="1.0" encoding="UTF-8"?>
<svg version="1.1" viewBox="0 0 1200 1200" xmlns="http://www.w3.org/2000/svg">
 <path d="m1150.8 609.16 4.2656-36.441-8.8633-12.461-12.008-21.09-9.4883-21.766-6.1953-14.523-14.719-9.5391-15.691-103.24-0.92578-55.465-18.805 1.5195-15.609 2.8516-4.8984-5.9141-36.633-15.664-23.586-8.2227-17.793 8.1797-28.516 1.4062-16.828 1.5312-13.223 9.0117-13.234 5.1055-12.246-3.8594-26.668 7.2617-13.426-15.309-11.672 14.895-22.535-4.7891-23.637-13.625-23.73 11.191-11.973-22.766-37.504 4.3633-24.316-4-27.41-5.6367-12.871-19.602-20.906 7.3984-13.434-7.4102-19.582-9.707-3.3789-92.691-3.5273-95.043-78.348 2.4297-78.414 1.625-78.359 0.71484 0.92969 254.49 0.66406 183.31-77.18-0.10938-149.74-2.4805-74.832-2.3594 0.58984 8.3633 8.7969 15.898 29.324 35.656 42.039 32.055 49.195 44.133 27.309 51.613 20.523 54.223 44.152 30.078 71.543 29.625 53.746-77.914 69.941-2.8672 61.34 37.742 45.219 66.047 32.008 56.641 53.914 54.184 22.391 68.277 27.059 45.328 71.254 27.113 64.891 17.969 34.77-5.2578-19.242-32.566-7.5508-47.16-3.6211-68.121 17.211-45.645 44.258-50.324 82.766-49.188 71.676-79.621 70.801-27.789-8.3633-12.156 7.1367-15.215 11.34-14.223-1.832-19.465-6.8672-5.8398 4.8789-24.043z" fill="#39f2ff"/>
</svg>
