<?xml version="1.0" encoding="UTF-8"?>
<svg version="1.1" viewBox="0 0 1200 1200" xmlns="http://www.w3.org/2000/svg">
 <path d="m961.44 745.56c-3.3828 3.6836-7.4648 6.6602-12 8.7617-47.16 20.52-171.12 74.762-303.72 135.6h-0.003906c-47.957 22.5-98.047 40.148-149.52 52.68-34.469 7.9727-70.367 7.3984-104.57-1.6797-34.195-9.0781-65.656-26.383-91.633-50.402-24.984-22.949-44.32-51.367-56.5-83.027-12.176-31.664-16.867-65.715-13.699-99.492l36-359.04c1.5625-15.562 9.4492-29.801 21.816-39.375 12.367-9.5742 28.125-13.648 43.582-11.266 14.309 2.2266 27.234 9.8164 36.148 21.23 8.9141 11.41 13.152 25.785 11.852 40.211l-14.762 160.8 0.003906-0.003906c-0.82422 10.836 2.7305 21.543 9.8711 29.734 7.1367 8.1875 17.266 13.172 28.109 13.828 10.844 0.66016 21.5-3.0586 29.578-10.32l321.6-291.36c7.5859-6.9414 17.496-10.789 27.777-10.789 10.285 0 20.195 3.8477 27.781 10.789 8.3906 7.6602 13.242 18.453 13.402 29.816 0.15625 11.363-4.3867 22.289-12.562 30.184l-181.44 175.2c-4.2891 4.2227-6.2031 10.301-5.1016 16.223 1.0977 5.918 5.0664 10.906 10.59 13.305 5.5195 2.4023 11.875 1.9062 16.953-1.3281l230.04-150.48c10.703-5.8633 23.617-6.0312 34.465-0.44531 10.848 5.5898 18.211 16.199 19.648 28.316 1.4414 12.117-3.2344 24.156-12.473 32.129l-223.44 161.88c-3.8633 2.8398-6.7188 6.8398-8.1445 11.418-1.4219 4.5781-1.3438 9.4922 0.22656 14.023 2.0977 6.082 6.7422 10.945 12.719 13.32 6.0469 2.3906 12.832 2.0391 18.602-0.96094l192-99.719c11.695-6.1016 25.738-5.6016 36.969 1.3203 11.227 6.9258 17.984 19.246 17.785 32.434-0.19531 13.191-7.3203 25.305-18.754 31.887l-220.68 129.24c-4.2266 2.6836-6.8477 7.2812-7.0078 12.285-0.16016 5 2.1641 9.7578 6.2109 12.703 4.043 2.9453 9.2852 3.6992 13.996 2.0117l177.48-70.922v0.003906c9.3711-3.7344 19.863-3.4766 29.039 0.71875 9.1055 4.0117 16.141 11.613 19.441 21 2.2891 6.3633 2.7852 13.234 1.4297 19.859s-4.5078 12.746-9.1094 17.699z" fill="#ffb7ef"/>
</svg>
